P1
10 10
1101000111
0101111000
1001110011
0110010100
0110010001
1100001110
0001100000
0111010001
1100100100
0000011110
