P1
4 7
0000
0000
0010
0010
0010
0100
0000
